<svg width="111" height="107" viewBox="0 0 111 107" fill="none" xmlns="http://www.w3.org/2000/svg">
<rect width="111" height="107" fill="#979795"/>
<path d="M74.3042 37.9472L49.5835 60.0975C48.7149 60.8757 48.1537 61.9207 47.9949 63.0535L47.1537 69.0683C47.0417 69.8708 45.8702 69.9514 45.6406 69.1728L42.4021 58.2045C42.0325 56.9527 42.5713 55.6163 43.7208 54.9337L73.6743 37.1491C74.2118 36.8303 74.7666 37.5327 74.3042 37.9472ZM111 0V107H0V0H111ZM86.2986 25.7069L23.3992 49.0971C21.8485 49.6738 21.8604 51.7929 23.4175 52.3534L38.7432 57.8681L44.6759 76.2586C45.056 77.4363 46.5509 77.8706 47.5425 77.091L56.0857 70.3774C56.9813 69.6737 58.2557 69.6393 59.1907 70.2936L74.6006 81.0784C75.6613 81.8209 77.164 81.2609 77.4306 80.0237L88.7174 27.6853C89.0088 26.3356 87.6333 25.2104 86.2986 25.7069Z" fill="white"/>
</svg>
