<svg width="111" height="107" viewBox="0 0 111 107" fill="none" xmlns="http://www.w3.org/2000/svg">
<rect width="111" height="107" fill="#979795"/>
<path d="M0 0V107H111V0H0ZM73.2576 34.2795C79.2845 40.0897 81.8781 47.9718 81.047 55.5686L77.9164 55.2476C78.6506 48.5313 76.3584 41.5628 71.03 36.4268C65.7015 31.2908 58.4725 29.0809 51.5051 29.7886L51.1721 26.7708C59.0534 25.9697 67.2302 28.4693 73.2576 34.2795ZM66.2038 41.0791C62.3894 37.4022 57.2146 35.8201 52.227 36.3272L51.894 33.3094C57.7955 32.7098 63.9185 34.5815 68.4314 38.9322C72.9443 43.2825 74.886 49.1848 74.2639 54.8733L71.1334 54.5523C71.6589 49.7443 70.0177 44.7561 66.2038 41.0791ZM61.2994 45.8068C59.0233 43.6127 55.9361 42.6713 52.9602 42.9734L52.6272 39.9561C56.5171 39.561 60.5524 40.7916 63.527 43.659C66.5016 46.5264 67.7782 50.4159 67.3679 54.1656L64.2378 53.8446C64.5516 50.9763 63.575 48.0005 61.2994 45.8068ZM80.4793 81.3579C76.5812 85.4736 73.7036 86.9944 62.1017 83.3263C50.4997 79.6582 38.0626 68.2058 38.0626 68.2058C38.0626 68.2058 26.1821 56.2168 22.3768 45.033C18.5716 33.8491 20.1492 31.0757 24.4187 27.3176C28.6883 23.56 32.4011 26.2439 34.2573 28.2122C36.1135 30.1806 42.0535 38.2329 42.0535 38.2329C42.0535 38.2329 44.0026 41.7224 41.4969 43.9593C38.9907 46.1962 37.0521 46.6336 36.4433 48.4727C35.835 50.3118 35.0926 51.0275 37.5983 54.875C37.7552 55.1154 37.9157 55.357 38.079 55.5986C41.4781 60.6191 45.9329 64.9133 51.1415 68.1899C51.3922 68.3473 51.6424 68.5021 51.8921 68.6533C55.8831 71.0692 56.6255 70.3531 58.5334 69.7667C60.4412 69.1803 60.895 67.3111 63.2155 64.8957C65.536 62.4798 69.1555 64.3587 69.1555 64.3587C69.1555 64.3587 77.5088 70.0846 79.5508 71.8739C81.5931 73.6637 84.3774 77.2423 80.4793 81.3579Z" fill="white"/>
</svg>
